<svg width="120" height="36" viewBox="0 0 120 36" fill="none" xmlns="http://www.w3.org/2000/svg">
  <g clip-path="url(#clip0_483_10)">
    <path
      d="M26.8693 32.9341L24.1181 26.7307H24.993L27.5228 32.4861H27.1117L29.6732 26.7307H30.5007L27.7337 32.9341H26.8693Z"
      fill="#008743" />
    <path
      d="M34.032 32.9921C33.4311 32.9921 32.8935 32.8551 32.4192 32.5863C31.9448 32.3122 31.5654 31.938 31.2913 31.4636C31.0172 30.9893 30.8802 30.4411 30.8802 29.8298C30.8802 29.2184 31.0172 28.6597 31.2913 28.1853C31.5654 27.711 31.9396 27.3421 32.4139 27.0733C32.8883 26.8045 33.4259 26.6727 34.032 26.6727C34.6381 26.6727 35.1915 26.8045 35.6658 27.0733C36.1402 27.3421 36.5144 27.711 36.7885 28.1853C37.0625 28.6597 37.1943 29.2078 37.1943 29.8298C37.1943 30.4517 37.0573 30.9893 36.7885 31.4636C36.5144 31.938 36.1402 32.3122 35.6606 32.5863C35.181 32.8603 34.6381 32.9921 34.032 32.9921ZM34.032 32.2489C34.48 32.2489 34.8805 32.1488 35.2231 31.9485C35.571 31.7482 35.845 31.4636 36.0453 31.1C36.2456 30.7363 36.3457 30.3094 36.3457 29.8298C36.3457 29.3501 36.2456 28.918 36.0453 28.5543C35.845 28.1906 35.571 27.9113 35.2231 27.711C34.8753 27.5107 34.4852 27.4106 34.0425 27.4106C33.5998 27.4106 33.2098 27.5107 32.8619 27.711C32.5141 27.9113 32.24 28.1959 32.0344 28.5543C31.8289 28.918 31.7287 29.3396 31.7287 29.8298C31.7287 30.3199 31.8289 30.7363 32.0344 31.1C32.24 31.4636 32.5141 31.7482 32.8619 31.9485C33.2098 32.1488 33.5998 32.2489 34.032 32.2489Z"
      fill="#008743" />
    <path
      d="M41.4371 32.9921C40.8363 32.9921 40.2987 32.8551 39.8243 32.5863C39.35 32.3122 38.9705 31.938 38.6964 31.4636C38.4224 30.9893 38.2853 30.4411 38.2853 29.8298C38.2853 29.2184 38.4224 28.6597 38.6964 28.1853C38.9705 27.711 39.3447 27.3421 39.819 27.0733C40.2934 26.8045 40.831 26.6727 41.4371 26.6727C42.0432 26.6727 42.5966 26.8045 43.071 27.0733C43.5453 27.3421 43.9195 27.711 44.1936 28.1853C44.4677 28.6597 44.5994 29.2078 44.5994 29.8298C44.5994 30.4517 44.4624 30.9893 44.1936 31.4636C43.9195 31.938 43.5453 32.3122 43.0657 32.5863C42.5861 32.8603 42.0432 32.9921 41.4371 32.9921ZM41.4371 32.2489C41.8851 32.2489 42.2857 32.1488 42.6283 31.9485C42.9761 31.7482 43.2502 31.4636 43.4505 31.1C43.6507 30.7363 43.7509 30.3094 43.7509 29.8298C43.7509 29.3501 43.6507 28.918 43.4505 28.5543C43.2502 28.1906 42.9761 27.9113 42.6283 27.711C42.2804 27.5107 41.8904 27.4106 41.4476 27.4106C41.0049 27.4106 40.6149 27.5107 40.267 27.711C39.9192 27.9113 39.6451 28.1959 39.4396 28.5543C39.234 28.918 39.1339 29.3396 39.1339 29.8298C39.1339 30.3199 39.234 30.7363 39.4396 31.1C39.6451 31.4636 39.9192 31.7482 40.267 31.9485C40.6149 32.1488 41.0049 32.2489 41.4371 32.2489Z"
      fill="#008743" />
    <path
      d="M46.3176 32.9341V26.7307H47.1188V28.4225L47.0344 28.1274C47.2084 27.653 47.4982 27.2946 47.9093 27.0469C48.3204 26.7992 48.8264 26.6727 49.4325 26.6727V27.4896C49.4009 27.4896 49.3693 27.4896 49.3377 27.4844C49.306 27.4844 49.2744 27.4791 49.2428 27.4791C48.5892 27.4791 48.078 27.6794 47.7091 28.0747C47.3401 28.47 47.1557 29.0392 47.1557 29.7718V32.9394H46.3176V32.9341Z"
      fill="#008743" />
    <path
      d="M54.5766 25.3603C54.4027 25.3603 54.2551 25.3023 54.1391 25.1811C54.0232 25.0652 53.9599 24.9229 53.9599 24.7542C53.9599 24.5856 54.0179 24.4485 54.1391 24.3326C54.2551 24.2166 54.4027 24.1639 54.5766 24.1639C54.7505 24.1639 54.8981 24.2166 55.0141 24.3273C55.13 24.438 55.1933 24.575 55.1933 24.7384C55.1933 24.9018 55.1353 25.0599 55.0193 25.1759C54.9034 25.2918 54.7558 25.3551 54.5766 25.3551V25.3603ZM54.1497 32.9341V26.7307H54.9877V32.9341H54.1497Z"
      fill="#008743" />
    <path
      d="M59.9631 32.9921C59.3148 32.9921 58.7509 32.8551 58.2607 32.5863C57.7706 32.3122 57.3911 31.938 57.117 31.4636C56.8429 30.9893 56.7059 30.4411 56.7059 29.8298C56.7059 29.2184 56.8377 28.6702 57.1012 28.2012C57.3647 27.7268 57.7284 27.3579 58.1869 27.0838C58.6455 26.8097 59.1672 26.678 59.7417 26.678C60.3162 26.678 60.8433 26.8097 61.2966 27.0733C61.7498 27.3368 62.1082 27.7057 62.3665 28.1853C62.6247 28.665 62.7565 29.2131 62.7565 29.835C62.7565 29.8719 62.7565 29.9141 62.7512 29.9615C62.7512 30.0037 62.746 30.0511 62.746 30.0986H57.3489V29.4714H62.298L61.9659 29.7191C61.9659 29.2711 61.871 28.8705 61.676 28.5174C61.481 28.1643 61.2228 27.8955 60.8907 27.6952C60.5587 27.5002 60.1792 27.4 59.747 27.4C59.3148 27.4 58.9406 27.5002 58.6033 27.6952C58.266 27.8902 58.0025 28.1695 57.8127 28.5227C57.623 28.8758 57.5281 29.2816 57.5281 29.7402V29.8719C57.5281 30.3463 57.6335 30.7626 57.8391 31.1158C58.0499 31.4742 58.3398 31.7535 58.714 31.9538C59.0882 32.1541 59.5151 32.2542 59.9947 32.2542C60.3742 32.2542 60.7273 32.1857 61.0541 32.0539C61.3809 31.9222 61.6602 31.7166 61.8974 31.4373L62.3717 31.9801C62.0977 32.3122 61.7498 32.5652 61.3387 32.7338C60.9276 32.9078 60.4691 32.9921 59.9736 32.9921H59.9631Z"
      fill="#008743" />
    <path
      d="M66.9361 32.9921C66.3458 32.9921 65.8134 32.8603 65.3496 32.5915C64.8805 32.3227 64.5116 31.9538 64.2428 31.4742C63.974 30.9998 63.8422 30.4464 63.8422 29.8245C63.8422 29.2026 63.974 28.6439 64.2428 28.1695C64.5116 27.6952 64.8805 27.3262 65.3496 27.0627C65.8187 26.7992 66.3458 26.6674 66.9361 26.6674C67.4789 26.6674 67.9638 26.7886 68.396 27.0364C68.8229 27.2788 69.1655 27.6372 69.4238 28.1063C69.682 28.5754 69.8085 29.1499 69.8085 29.8245C69.8085 30.4991 69.682 31.0631 69.429 31.5374C69.176 32.0118 68.8387 32.3702 68.4065 32.6179C67.9796 32.8656 67.4895 32.9921 66.9361 32.9921ZM66.994 32.2489C67.4368 32.2489 67.8321 32.1488 68.1799 31.9485C68.5278 31.7482 68.8071 31.4636 69.0074 31.1C69.2077 30.7363 69.3078 30.3094 69.3078 29.8298C69.3078 29.3501 69.2077 28.918 69.0074 28.5543C68.8071 28.1906 68.533 27.9113 68.1799 27.711C67.8268 27.5107 67.4315 27.4106 66.994 27.4106C66.5566 27.4106 66.1718 27.5107 65.824 27.711C65.4761 27.9113 65.202 28.1959 64.9965 28.5543C64.7909 28.918 64.6908 29.3396 64.6908 29.8298C64.6908 30.3199 64.7909 30.7363 64.9965 31.1C65.202 31.4636 65.4761 31.7482 65.824 31.9485C66.1718 32.1488 66.5618 32.2489 66.994 32.2489ZM69.3342 32.9341V31.0683L69.4185 29.8139L69.3025 28.5596V24.1639H70.1406V32.9288H69.3394L69.3342 32.9341Z"
      fill="#008743" />
    <path
      d="M75.1107 32.9921C74.4624 32.9921 73.8985 32.8551 73.4083 32.5863C72.9181 32.3122 72.5387 31.938 72.2646 31.4636C71.9905 30.9893 71.8535 30.4411 71.8535 29.8298C71.8535 29.2184 71.9852 28.6702 72.2488 28.2012C72.5123 27.7268 72.876 27.3579 73.3345 27.0838C73.793 26.8097 74.3148 26.678 74.8893 26.678C75.4638 26.678 75.9909 26.8097 76.4441 27.0733C76.8974 27.3368 77.2558 27.7057 77.5141 28.1853C77.7723 28.665 77.9041 29.2131 77.9041 29.835C77.9041 29.8719 77.9041 29.9141 77.8988 29.9615C77.8988 30.0037 77.8935 30.0511 77.8935 30.0986H72.4965V29.4714H77.4455L77.1135 29.7191C77.1135 29.2711 77.0186 28.8705 76.8236 28.5174C76.6286 28.1643 76.3704 27.8955 76.0383 27.6952C75.7063 27.5002 75.3268 27.4 74.8946 27.4C74.4624 27.4 74.0882 27.5002 73.7509 27.6952C73.4136 27.8902 73.15 28.1695 72.9603 28.5227C72.7706 28.8758 72.6757 29.2816 72.6757 29.7402V29.8719C72.6757 30.3463 72.7811 30.7626 72.9867 31.1158C73.1975 31.4742 73.4874 31.7535 73.8616 31.9538C74.2358 32.1541 74.6627 32.2542 75.1423 32.2542C75.5218 32.2542 75.8749 32.1857 76.2017 32.0539C76.5285 31.9222 76.8078 31.7166 77.045 31.4373L77.5193 31.9801C77.2453 32.3122 76.8974 32.5652 76.4863 32.7338C76.0752 32.9078 75.6167 32.9921 75.1212 32.9921H75.1107Z"
      fill="#008743" />
    <path
      d="M79.6117 32.9341V26.7307H80.4129V28.4225L80.3285 28.1274C80.5025 27.653 80.7923 27.2946 81.2034 27.0469C81.6146 26.7992 82.1205 26.6727 82.7266 26.6727V27.4896C82.695 27.4896 82.6634 27.4896 82.6318 27.4844C82.6001 27.4844 82.5685 27.4791 82.5369 27.4791C81.8834 27.4791 81.3721 27.6794 81.0032 28.0747C80.6342 28.47 80.4498 29.0392 80.4498 29.7718V32.9394H79.6117V32.9341Z"
      fill="#008743" />
    <path
      d="M86.8324 32.9921C86.1841 32.9921 85.6202 32.8551 85.13 32.5863C84.6398 32.3122 84.2604 31.938 83.9863 31.4636C83.7122 30.9893 83.5752 30.4411 83.5752 29.8298C83.5752 29.2184 83.707 28.6702 83.9705 28.2012C84.234 27.7268 84.5977 27.3579 85.0562 27.0838C85.5148 26.8097 86.0365 26.678 86.611 26.678C87.1855 26.678 87.7126 26.8097 88.1658 27.0733C88.6191 27.3368 88.9775 27.7057 89.2358 28.1853C89.494 28.665 89.6258 29.2131 89.6258 29.835C89.6258 29.8719 89.6258 29.9141 89.6205 29.9615C89.6205 30.0037 89.6152 30.0511 89.6152 30.0986H84.2182V29.4714H89.1672L88.8352 29.7191C88.8352 29.2711 88.7403 28.8705 88.5453 28.5174C88.3503 28.1643 88.0921 27.8955 87.76 27.6952C87.428 27.5002 87.0485 27.4 86.6163 27.4C86.1841 27.4 85.8099 27.5002 85.4726 27.6952C85.1353 27.8902 84.8717 28.1695 84.682 28.5227C84.4923 28.8758 84.3974 29.2816 84.3974 29.7402V29.8719C84.3974 30.3463 84.5028 30.7626 84.7084 31.1158C84.9192 31.4742 85.2091 31.7535 85.5833 31.9538C85.9575 32.1541 86.3844 32.2542 86.864 32.2542C87.2435 32.2542 87.5966 32.1857 87.9234 32.0539C88.2502 31.9222 88.5295 31.7166 88.7667 31.4373L89.241 31.9801C88.967 32.3122 88.6191 32.5652 88.208 32.7338C87.7969 32.9078 87.3384 32.9921 86.8429 32.9921H86.8324Z"
      fill="#008743" />
    <path
      d="M93.9687 32.9921C93.3205 32.9921 92.7565 32.8551 92.2663 32.5863C91.7762 32.3122 91.3967 31.938 91.1226 31.4636C90.8486 30.9893 90.7115 30.4411 90.7115 29.8298C90.7115 29.2184 90.8433 28.6702 91.1068 28.2012C91.3704 27.7268 91.734 27.3579 92.1926 27.0838C92.6511 26.8097 93.1729 26.678 93.7474 26.678C94.3219 26.678 94.8489 26.8097 95.3022 27.0733C95.7555 27.3368 96.1139 27.7057 96.3721 28.1853C96.6304 28.665 96.7621 29.2131 96.7621 29.835C96.7621 29.8719 96.7621 29.9141 96.7569 29.9615C96.7569 30.0037 96.7516 30.0511 96.7516 30.0986H91.3545V29.4714H96.3036L95.9715 29.7191C95.9715 29.2711 95.8767 28.8705 95.6817 28.5174C95.4867 28.1643 95.2284 27.8955 94.8964 27.6952C94.5643 27.5002 94.1848 27.4 93.7526 27.4C93.3205 27.4 92.9463 27.5002 92.6089 27.6952C92.2716 27.8902 92.0081 28.1695 91.8184 28.5227C91.6286 28.8758 91.5337 29.2816 91.5337 29.7402V29.8719C91.5337 30.3463 91.6391 30.7626 91.8447 31.1158C92.0555 31.4742 92.3454 31.7535 92.7196 31.9538C93.0938 32.1541 93.5207 32.2542 94.0004 32.2542C94.3798 32.2542 94.733 32.1857 95.0597 32.0539C95.3865 31.9222 95.6659 31.7166 95.903 31.4373L96.3774 31.9801C96.1033 32.3122 95.7555 32.5652 95.3443 32.7338C94.9332 32.9078 94.4747 32.9921 93.9793 32.9921H93.9687Z"
      fill="#008743" />
    <path
      d="M101.637 26.6727C102.143 26.6727 102.586 26.7676 102.966 26.9626C103.345 27.1576 103.645 27.4475 103.862 27.8428C104.078 28.2381 104.188 28.7335 104.188 29.3291V32.9341H103.35V29.4134C103.35 28.7598 103.187 28.2644 102.86 27.9324C102.533 27.6003 102.075 27.4317 101.485 27.4317C101.042 27.4317 100.657 27.5213 100.33 27.6952C100.004 27.8691 99.7505 28.1274 99.5766 28.4647C99.3974 28.802 99.3131 29.2026 99.3131 29.6769V32.9394H98.4751V26.7359H99.2762V28.4383L99.1444 28.1168C99.3394 27.6688 99.6557 27.3157 100.088 27.0574C100.52 26.7992 101.037 26.6727 101.637 26.6727Z"
      fill="#008743" />
    <path
      d="M5.33907 21.3916C8.28776 21.3916 10.6781 19.0012 10.6781 16.0525C10.6781 13.1038 8.28776 10.7135 5.33907 10.7135C2.39039 10.7135 1.66893e-06 13.1038 1.66893e-06 16.0525C1.66893e-06 19.0012 2.39039 21.3916 5.33907 21.3916Z"
      fill="#654E6F" />
    <path
      d="M13.967 13.7177C16.9157 13.7177 19.306 11.3273 19.306 8.3786C19.306 5.42991 16.9157 3.03953 13.967 3.03953C11.0183 3.03953 8.6279 5.42991 8.6279 8.3786C8.6279 11.3273 11.0183 13.7177 13.967 13.7177Z"
      fill="#008743" />
    <path
      d="M2.31905 17.4914H5.61841C5.961 17.4914 6.29832 17.5019 6.57238 17.2226C6.60401 17.191 6.63563 17.1488 6.66198 17.1172L7.31026 16.3635C9.04427 14.3396 10.7783 12.3157 12.507 10.2865C13.013 9.69097 13.5242 9.10067 14.0302 8.50509L13.3819 8.77389H16.9817C17.4614 8.77389 17.9252 8.35225 17.8988 7.85681C17.8725 7.36138 17.493 6.93974 16.9817 6.93974H13.6824C13.3398 6.93974 13.0025 6.9292 12.7284 7.20854C12.6968 7.24016 12.6651 7.28232 12.6388 7.31395L11.9905 8.06764C10.2565 10.0915 8.52249 12.1154 6.79375 14.1446C6.28777 14.7402 5.77653 15.3305 5.27056 15.926L5.91884 15.6572H2.31905C1.83943 15.6572 1.37562 16.0789 1.40197 16.5743C1.42832 17.0697 1.8078 17.4914 2.31905 17.4914Z"
      fill="white" />
    <path
      d="M30.7959 21.4707C29.6311 21.4707 28.5559 21.2388 27.5808 20.775C26.6058 20.3111 25.7519 19.6681 25.0193 18.8407C24.292 18.0185 23.7228 17.0434 23.3222 15.926C22.9216 14.8034 22.7214 13.5754 22.7214 12.2314C22.7214 10.8874 22.9216 9.67516 23.3222 8.54726C23.7228 7.41936 24.2867 6.44431 25.0088 5.61683C25.7309 4.79463 26.5847 4.15162 27.5703 3.69835C28.5559 3.23981 29.6311 3.01318 30.7959 3.01318C31.9606 3.01318 32.9621 3.22927 33.8791 3.66146C34.7962 4.09364 35.571 4.66286 36.1982 5.36385C36.7674 6.00685 37.1943 6.69203 37.4736 7.42463C37.5211 7.55113 37.4631 7.68816 37.3419 7.75141L35.4656 8.69484C35.3285 8.76336 35.1651 8.69484 35.1019 8.55253C34.7593 7.73033 34.2428 7.04515 33.5524 6.50756C32.7881 5.90671 31.8658 5.60629 30.7853 5.60629C29.7049 5.60629 28.7509 5.88563 27.9181 6.44431C27.0854 7.00299 26.4424 7.78303 25.9838 8.7739C25.5253 9.76476 25.2934 10.919 25.2934 12.2314C25.2934 13.5437 25.5253 14.7244 25.9838 15.7258C26.4424 16.7272 27.0907 17.5019 27.9181 18.0553C28.7509 18.6088 29.7049 18.8828 30.7853 18.8828C31.8658 18.8828 32.7881 18.5877 33.5524 17.9921C34.2481 17.4545 34.7646 16.7693 35.1072 15.926C35.1651 15.7837 35.3338 15.7258 35.4656 15.7943L37.3419 16.7535C37.4578 16.8168 37.5158 16.9538 37.4684 17.0803C37.189 17.7971 36.7621 18.477 36.1929 19.12C35.5657 19.8263 34.7909 20.3902 33.8739 20.8224C32.9568 21.2546 31.9238 21.4707 30.7906 21.4707H30.7959Z"
      fill="#008743" />
    <path
      d="M39.5134 21.0385L45.2319 3.19238C45.2688 3.0817 45.3689 3.00791 45.4902 3.00791H48.3784C48.4944 3.00791 48.5998 3.0817 48.6367 3.19238L54.3552 21.0332C54.4132 21.2071 54.2814 21.3863 54.097 21.3863H51.8096C51.6936 21.3863 51.5882 21.3073 51.5513 21.1966L50.4076 17.4598C50.3707 17.3491 50.2706 17.27 50.1493 17.27H43.7298C43.6138 17.27 43.5084 17.3438 43.4715 17.4598L42.2857 21.2019C42.2488 21.3125 42.1486 21.3916 42.0274 21.3916H39.7611C39.5766 21.3916 39.4501 21.2124 39.5028 21.0385H39.5134ZM44.668 14.6769H49.1743C49.3535 14.6769 49.4852 14.503 49.4325 14.3291L46.6813 5.40601C46.6286 5.23208 46.7551 5.05815 46.9396 5.05815H46.9501C47.1293 5.05815 47.2611 5.23208 47.2084 5.40601L44.415 14.3291C44.3623 14.503 44.4888 14.6769 44.6732 14.6769H44.668Z"
      fill="#008743" />
    <path
      d="M57.4016 21.1175V3.27671C57.4016 3.12913 57.5228 3.00791 57.6704 3.00791H63.4944C64.617 3.00791 65.6079 3.23454 66.4617 3.68781C67.3155 4.14108 67.9849 4.7999 68.4751 5.659C68.9599 6.52337 69.2077 7.5564 69.2077 8.75281C69.2077 10.0336 68.9178 11.1246 68.3433 12.0206C67.8162 12.8375 67.1205 13.4541 66.2614 13.8705C66.1244 13.9338 66.077 14.1024 66.1455 14.2342L69.6767 20.991C69.7716 21.1702 69.6398 21.3863 69.4396 21.3863H67.0362C66.9361 21.3863 66.8412 21.3284 66.799 21.2388L63.215 14.2553C63.0885 14.0128 63.3679 13.7598 63.5998 13.9074L63.7157 13.9812C63.9424 14.1288 63.837 14.4766 63.5682 14.4766H60.3268C60.1792 14.4766 60.058 14.5979 60.058 14.7454V21.1175C60.058 21.2651 59.9368 21.3863 59.7892 21.3863H57.6757C57.5281 21.3863 57.4069 21.2651 57.4069 21.1175H57.4016ZM60.058 11.62C60.058 11.7676 60.1792 11.8888 60.3268 11.8888H63.5418C64.1427 11.8888 64.6644 11.757 65.1177 11.4935C65.5657 11.23 65.9188 10.8663 66.1771 10.3972C66.4301 9.92815 66.5618 9.38001 66.5618 8.75808C66.5618 8.13616 66.4353 7.56167 66.1771 7.09259C65.9241 6.62351 65.571 6.25984 65.1177 5.99631C64.6697 5.73278 64.1427 5.60102 63.5418 5.60102H60.3268C60.1792 5.60102 60.058 5.72224 60.058 5.86982V11.6253V11.62Z"
      fill="#008743" />
    <path
      d="M73.15 21.1175V3.27671C73.15 3.12913 73.2713 3.00791 73.4188 3.00791H78.6367C80.376 3.00791 81.8886 3.39266 83.1694 4.16743C84.4501 4.9422 85.4462 6.01212 86.1472 7.38774C86.8535 8.76335 87.2066 10.3603 87.2066 12.1839C87.2066 14.0076 86.8535 15.594 86.1472 16.9854C85.441 18.3768 84.4501 19.4573 83.1694 20.2321C81.8886 21.0069 80.376 21.3916 78.6367 21.3916H73.4188C73.2713 21.3916 73.15 21.2704 73.15 21.1228V21.1175ZM75.8064 18.5244C75.8064 18.672 75.9276 18.7932 76.0752 18.7932H78.6841C79.87 18.7932 80.8978 18.5244 81.7674 17.9816C82.637 17.4387 83.3117 16.6745 83.7913 15.6889C84.2709 14.7033 84.5134 13.5332 84.5134 12.1839C84.5134 10.8347 84.2709 9.66989 83.7913 8.69484C83.3117 7.71451 82.637 6.95555 81.7674 6.41269C80.8978 5.86982 79.87 5.60102 78.6841 5.60102H76.0752C75.9276 5.60102 75.8064 5.72224 75.8064 5.86982V18.5297V18.5244Z"
      fill="#008743" />
    <path
      d="M89.3781 21.0385L95.0966 3.19238C95.1335 3.0817 95.2337 3.00791 95.3549 3.00791H98.2431C98.3591 3.00791 98.4645 3.0817 98.5014 3.19238L104.22 21.0332C104.278 21.2071 104.146 21.3863 103.962 21.3863H101.674C101.558 21.3863 101.453 21.3073 101.416 21.1966L100.272 17.4598C100.235 17.3491 100.135 17.27 100.014 17.27H93.5945C93.4786 17.27 93.3732 17.3438 93.3363 17.4598L92.1504 21.2019C92.1135 21.3125 92.0134 21.3916 91.8921 21.3916H89.6258C89.4413 21.3916 89.3148 21.2124 89.3675 21.0385H89.3781ZM94.5327 14.6769H99.039C99.2182 14.6769 99.35 14.503 99.2973 14.3291L96.546 5.40601C96.4933 5.23208 96.6198 5.05815 96.8043 5.05815H96.8148C96.994 5.05815 97.1258 5.23208 97.0731 5.40601L94.2797 14.3291C94.227 14.503 94.3535 14.6769 94.5379 14.6769H94.5327Z"
      fill="#008743" />
    <path
      d="M106.845 21.1175V3.27671C106.845 3.12913 106.966 3.00791 107.113 3.00791H108.837C108.927 3.00791 109.011 3.05534 109.064 3.12913L118.155 16.9011C118.261 17.0645 118.166 17.2806 117.976 17.3175L117.665 17.3702C117.502 17.3965 117.354 17.27 117.354 17.1066V3.27671C117.354 3.12913 117.475 3.00791 117.623 3.00791H119.736C119.884 3.00791 120.005 3.12913 120.005 3.27671V21.1175C120.005 21.2651 119.884 21.3863 119.736 21.3863H118.013C117.923 21.3863 117.839 21.3389 117.786 21.2651L108.753 7.39301C108.647 7.22962 108.742 7.01353 108.932 6.98191L109.185 6.93447C109.348 6.90285 109.501 7.02934 109.501 7.198V21.1123C109.501 21.2598 109.38 21.3811 109.232 21.3811H107.119C106.971 21.3811 106.85 21.2598 106.85 21.1123L106.845 21.1175Z"
      fill="#008743" />
  </g>
  <defs>
    <clipPath id="clip0_483_10">
      <rect width="120" height="36" fill="white" />
    </clipPath>
  </defs>
</svg>
      